<?xml version="1.0" encoding="UTF-8" standalone="no"?>
<svg
   viewBox="23.0115966796875 176.3809051513672 385.9766845703125 79.23851013183594"
   width="385.9766845703125"
   height="79.23851013183594"
   version="1.1"
   id="svg42"
   sodipodi:docname="TheCarpentries.svg"
   inkscape:version="1.2.2 (b0a84865, 2022-12-01)"
   xmlns:inkscape="http://www.inkscape.org/namespaces/inkscape"
   xmlns:sodipodi="http://sodipodi.sourceforge.net/DTD/sodipodi-0.dtd"
   xmlns="http://www.w3.org/2000/svg"
   xmlns:svg="http://www.w3.org/2000/svg">
  <defs
     id="defs46" />
  <sodipodi:namedview
     id="namedview44"
     pagecolor="#ffffff"
     bordercolor="#000000"
     borderopacity="0.25"
     inkscape:showpageshadow="2"
     inkscape:pageopacity="0.0"
     inkscape:pagecheckerboard="0"
     inkscape:deskcolor="#d1d1d1"
     showgrid="false"
     inkscape:zoom="2.9783498"
     inkscape:cx="185.67329"
     inkscape:cy="41.465915"
     inkscape:window-width="1691"
     inkscape:window-height="689"
     inkscape:window-x="0"
     inkscape:window-y="25"
     inkscape:window-maximized="0"
     inkscape:current-layer="svg42" />
  <path
     id="path2"
     style="fill:#071159;fill-rule:evenodd;stroke-width:0.2"
     d="m 184.88174,216.82802 -0.1218,-3.12438 2.6962,-1.69882 2.72252,1.45902 0.1384,3.20862 -2.6962,1.6987 z" />
  <path
     id="path4"
     style="fill:#071159;fill-rule:evenodd;stroke-width:0.2"
     d="m 179.53252,216.22252 -0.0165,-4.49004 5.85812,-3.65616 2.80182,1.67258 c -2.02056,1.3129 -2.9491,1.86618 -4.9975,3.13982 l -0.0385,1.19502 z" />
  <path
     id="path6"
     style="fill:#071159;fill-rule:evenodd;stroke-width:0.2"
     d="m 179.81092,222.48154 -2.40864,-3.81628 5.75726,-3.36894 0.23114,2.46692 2.15856,1.1178 z" />
  <path
     id="path8"
     style="fill:#071159;fill-rule:evenodd;stroke-width:0.2"
     d="m 182.82556,221.85296 3.9838,2.07098 5.96588,-3.64974 -0.3787,-3.12838 c -2.0675,1.2367 -2.86954,1.75712 -4.93752,2.99328 l -1.0799,-0.51326 z" />
  <path
     id="path10"
     style="fill:#000000;fill-rule:evenodd;stroke-width:0.2"
     d="m 200.34572,214.59826 h 0.9135 v -4.02086 h 1.53644 v -0.83046 c -1.40492,0 -2.58832,0 -3.98628,0 v 0.83046 h 1.53634 z m 8.01622,0 v -4.83742 h -0.90656 v 2.04158 h -2.3807 v -2.04158 h -0.9135 v 4.83742 h 0.9135 v -1.95158 h 2.3807 v 1.95158 z m 5.27572,-0.89968 h -2.71976 v -1.09342 h 2.6229 v -0.85122 h -2.6229 v -1.12112 h 2.71976 v -0.88588 h -3.6264 c 0,1.61712 0,3.23888 0,4.85132 h 3.6264 z" />
  <path
     id="path12"
     style="fill:#000000;fill-rule:evenodd;stroke-width:0.2"
     d="m 202.595,220.89 c -0.3183,0.31828 -0.7959,0.49132 -1.21798,0.49132 -1.1973,0 -1.66092,-0.8374 -1.66788,-1.64016 -0.007,-0.8097 0.49828,-1.68168 1.66788,-1.68168 0.42208,0 0.85122,0.14534 1.16958,0.45676 l 0.60896,-0.58828 c -0.49828,-0.49132 -1.12112,-0.74046 -1.77854,-0.74046 -1.75092,0 -2.57444,1.28722 -2.56756,2.55366 0.007,1.2595 0.76816,2.49832 2.56756,2.49832 0.69894,0 1.34254,-0.22836 1.84082,-0.71978 z" />
  <path
     id="path14"
     style="fill:#000000;fill-rule:evenodd;stroke-width:0.2"
     d="m 208.1683,222.12874 h 0.99656 l -2.1731,-4.85132 h -0.99654 l -2.17302,4.85132 h 0.98962 l 0.41522,-0.91352 h 2.5329 z m -0.77512,-1.76474 h -1.79938 l 0.8997,-2.0669 z" />
  <path
     id="path16"
     style="fill:#000000;fill-rule:evenodd;stroke-width:0.2"
     d="m 214.6758,222.06644 -1.4672,-1.65396 c 0.92046,-0.18686 1.22502,-0.85818 1.22502,-1.52598 0,-0.84092 -0.60208,-1.60214 -1.74404,-1.60908 -0.76818,0.007 -1.53636,0 -2.30454,0 v 4.85132 h 0.91352 v -1.6194 h 0.87892 l 1.41178,1.6194 h 1.08654 z m -1.98622,-3.9378 c 0.57444,0 0.83054,0.38874 0.83054,0.77864 0,0.3898 -0.24922,0.77854 -0.83054,0.77854 h -1.39102 v -1.55718 z" />
  <path
     id="path18"
     style="fill:#000000;fill-rule:evenodd;stroke-width:0.2"
     d="m 216.76806,218.1494 h 1.37026 c 1.16264,0 1.16958,1.71634 0,1.71634 h -1.37026 z m 1.37026,-0.87198 c -0.76132,-0.007 -1.52254,0 -2.28376,0 v 4.85132 h 0.9135 v -1.4256 h 1.37026 c 2.37376,0 2.3668,-3.42572 0,-3.42572 z" />
  <path
     id="path20"
     style="fill:#000000;fill-rule:evenodd;stroke-width:0.2"
     d="m 224.95038,221.22904 h -2.71976 v -1.0934 h 2.6229 v -0.85122 h -2.6229 v -1.12114 h 2.71976 v -0.88586 h -3.6264 c 0,1.6171 0,3.23886 0,4.85132 h 3.6264 z" />
  <path
     id="path22"
     style="fill:#000000;fill-rule:evenodd;stroke-width:0.2"
     d="m 229.7901,220.28554 -2.37376,-3.00812 h -0.74056 v 4.85132 h 0.91352 v -3.27108 l 2.54678,3.27108 v 0 h 0.56752 v -4.85132 h -0.9135 z" />
  <path
     id="path24"
     style="fill:#000000;fill-rule:evenodd;stroke-width:0.2"
     d="m 233.5986,222.12874 h 0.9135 v -4.02086 h 1.53644 v -0.83046 c -1.40492,0 -2.58832,0 -3.9863,0 v 0.83046 h 1.53636 z" />
  <path
     id="path26"
     style="fill:#000000;fill-rule:evenodd;stroke-width:0.2"
     d="m 241.70482,222.06644 -1.4672,-1.65396 c 0.92044,-0.18686 1.225,-0.85818 1.225,-1.52598 0,-0.84092 -0.60208,-1.60214 -1.74404,-1.60908 -0.76818,0.007 -1.53636,0 -2.30452,0 v 4.85132 h 0.9135 v -1.6194 h 0.87892 l 1.41178,1.6194 h 1.08656 z m -1.98624,-3.9378 c 0.57446,0 0.83054,0.38874 0.83054,0.77864 0,0.3898 -0.24922,0.77854 -0.83054,0.77854 h -1.39102 v -1.55718 z" />
  <path
     id="path28"
     style="fill:#000000;fill-rule:evenodd;stroke-width:0.2"
     d="m 243.79706,222.12874 v -4.85132 h -0.90664 v 4.85132 z" />
  <path
     id="path30"
     style="fill:#000000;fill-rule:evenodd;stroke-width:0.2"
     d="m 249.07278,221.22904 h -2.71976 v -1.0934 h 2.6229 v -0.85122 h -2.6229 v -1.12114 h 2.71976 v -0.88586 h -3.6264 c 0,1.6171 0,3.23886 0,4.85132 h 3.6264 z" />
  <path
     id="path32"
     style="fill:#000000;fill-rule:evenodd;stroke-width:0.2"
     d="m 254.44534,218.08024 c -0.36676,-0.7474 -1.14884,-0.96198 -1.9032,-0.96198 -0.89274,0.007 -1.8754,0.41524 -1.8754,1.41178 0,1.08656 0.91352,1.3495 1.90312,1.4672 0.6436,0.0692 1.12112,0.25602 1.12112,0.71276 0,0.526 -0.5398,0.72666 -1.11418,0.72666 -0.58826,0 -1.14882,-0.23524 -1.36338,-0.76818 l -0.76124,0.39448 c 0.3599,0.88586 1.12112,1.19034 2.11072,1.19034 1.0796,0 2.03472,-0.4637 2.03472,-1.5433 0,-1.1557 -0.94122,-1.41864 -1.95166,-1.54322 -0.58132,-0.0692 -1.0796,-0.18684 -1.0796,-0.60902 0,-0.3599 0.32532,-0.6436 1.0035,-0.6436 0.52598,0 0.98274,0.26294 1.14882,0.5398 z" />
  <path
     id="path34"
     style="fill:#000000;fill-rule:evenodd;stroke-width:0.2"
     d="m 195.4414,208.0763 v 15.8477 h 0.51638 v -15.8477 z" />
</svg>
